<svg xmlns="http://www.w3.org/2000/svg" viewBox="0 0 512 512"><style type="text/css"> .st0{fill:#D0D0D0;} </style><path class="st0" d="M458.3 23.9H53.7c-16.4 0-29.8 13.3-29.8 29.8v404.7c0 16.4 13.3 29.8 29.8 29.8h217.5V308.6h-60.6v-70.4h60c0 0 1.1-24.6 1.1-62.8s28.4-64.4 41.5-70.9c13.1-6.5 33.3-11.5 54-10.4 20.7 1.1 47.5 3.8 47.5 3.8l1.1 61.1c0 0-33.3 0.5-45.8 1.1s-26.2 7.1-26.2 30 0 47.5 0 47.5h70.4l-9.8 70.4h-60v180.1h114.1c16.4 0 29.8-13.3 29.8-29.8V53.7C488.1 37.2 474.8 23.9 458.3 23.9z"/></svg>