<svg xmlns="http://www.w3.org/2000/svg" viewBox="0 0 512 512"><style type="text/css"> .st0{fill:#D0D0D0;} </style><path class="st0" d="M162.6 223.8v64.4c0 0 62.5-0.1 87.9-0.1 -13.8 41.8-35.2 64.5-87.9 64.5 -53.4 0-95-43.3-95-96.6 0-53.4 41.6-96.6 95-96.6 28.2 0 46.4 9.9 63.1 23.7 13.4-13.4 12.3-15.3 46.3-47.4 -28.9-26.3-67.3-42.3-109.4-42.3C72.8 93.4 0 166.2 0 256c0 89.8 72.8 162.6 162.6 162.6 134.2 0 167.1-116.9 156.2-194.8C287 223.8 162.6 223.8 162.6 223.8zM455.6 227v-56.4h-40.3V227h-58v40.3h58v58h40.3v-58H512V227H455.6z"/></svg>