<svg xmlns="http://www.w3.org/2000/svg" viewBox="0 0 512 512"><style type="text/css"> .st0{fill:#D0D0D0;} </style><path class="st0" d="M454.3 22H57.7c-18.7 0-33.8 15.1-33.8 33.8v400.4c0 18.7 15.1 33.8 33.8 33.8h396.5c18.7 0 33.8-15.1 33.8-33.8V55.8C488.1 37.1 472.9 22 454.3 22zM186.1 386.8h-65.2v-192h65.2V386.8zM152.3 165.9c-19.7 0-35.6-15.9-35.6-35.6s15.9-35.6 35.6-35.6 35.6 15.9 35.6 35.6S171.9 165.9 152.3 165.9zM409.4 386.8h-65.2v-117c0-16.2-1.8-34.2-22.5-34.2 -21.1 0-26.4 19.7-26.4 37.3v113.8h-65.2c0 0 0.1-180.2 0.1-192.9l60.7-0.1L291 224c10.9-22.2 33.8-32.8 57.8-32.8 40.9 0 60.6 22.9 60.6 63.1V386.8z"/></svg>