<?xml version="1.0" encoding="utf-8"?>
<!-- Generator: Adobe Illustrator 19.2.1, SVG Export Plug-In . SVG Version: 6.00 Build 0)  -->
<svg version="1.1" id="Layer_1" xmlns="http://www.w3.org/2000/svg" xmlns:xlink="http://www.w3.org/1999/xlink" x="0px" y="0px"
	 viewBox="0 0 250 250" style="enable-background:new 0 0 250 250;" xml:space="preserve">
<style type="text/css">
	.st0{fill:#4498C8;}
</style>
<g>
	<path class="st0" d="M92.2,200.4c0,21.7,11.1,39.3,32.8,39.3c21.7,0,32.8-17.6,32.8-39.3c0-0.2-18.4,6.6-32.8,6.6
		C110.7,206.9,92.2,200.1,92.2,200.4z"/>
	<path class="st0" d="M125,10.3c-43.4,0-78.6,35.2-78.6,78.6c0,39.3,39.3,72.1,39.3,85.2c0,6.6,13.1,19.7,39.3,19.7
		s39.3-13.1,39.3-19.7c0-13.1,39.3-45.9,39.3-85.2C203.6,45.5,168.4,10.3,125,10.3z M139,42.9c-37.1,0-67.2,29.7-67.2,66.4
		c0,1.9,0.1,3.8,0.3,5.7c-3.5-7.5-5.9-15.6-5.9-24.2c0-33.6,27.6-60.9,61.6-60.9c20.4,0,38.4,9.8,49.6,24.9
		C166.5,47.3,153.3,42.9,139,42.9z"/>
</g>
</svg>
