<svg xmlns="http://www.w3.org/2000/svg" viewBox="0 0 250 250"><style type="text/css"> .st0{fill-rule:evenodd;clip-rule:evenodd;fill:#4498C8;} </style><path class="st0" d="M215.9 106.6c6.4 45.6-12.8 114.1-91.5 114.1 -52.6 0-95.2-42.6-95.2-95.2 0-52.6 42.6-95.2 95.2-95.2 24.7 0 47.2 9.4 64.1 24.8 -19.9 18.8-19.3 19.9-27.1 27.8 -9.8-8.1-20.5-13.9-37-13.9 -31.2 0-55.6 25.3-55.6 56.6 0 31.2 24.4 56.6 55.6 56.6 30.9 0 43.4-13.3 51.5-37.8 -14.9 0-51.5 0-51.5 0v-37.7C124.4 106.6 197.3 106.6 215.9 106.6z"/></svg>