
<svg xmlns="http://www.w3.org/2000/svg" viewBox="0 0 264.3 100.5"><circle cx="50" cy="50.2" r="50"/><path d="M129.6 29.4h-12.2V0.2h11.7c5.7 0 9 3.2 9 8.2 0 3.2-2.1 5.3-3.6 6 1.8 0.8 4 2.7 4 6.6C138.6 26.5 134.8 29.4 129.6 29.4zM128.7 5.3h-5.6v6.7h5.6c2.4 0 3.8-1.4 3.8-3.4C132.5 6.7 131.1 5.3 128.7 5.3zM129 17.2h-5.9v7.2h5.9c2.6 0 3.8-1.6 3.8-3.6C132.9 18.8 131.6 17.2 129 17.2zM144.4 29.4V0.2h5.7v29.2H144.4zM174.9 26.4c-2.3 2.4-5.1 3.3-8.2 3.3-3.2 0-5.8-1.1-7.9-3.2-3-3-2.9-6.6-2.9-11.6s-0.1-8.7 2.9-11.6c2-2 4.6-3.2 7.9-3.2 6.8 0 10.2 4.4 11 9.3h-5.7c-0.7-2.7-2.3-4.3-5.2-4.3-1.6 0-2.8 0.6-3.6 1.6-1.1 1.2-1.4 2.6-1.4 8.2s0.3 7 1.4 8.2c0.8 0.9 2.1 1.5 3.6 1.5 1.7 0 3.1-0.6 4.1-1.6 0.9-1.1 1.3-2.4 1.3-3.9V18h-5.4v-4.8h11v4.3C177.7 21.7 176.9 24.2 174.9 26.4zM211.2 26.7c-1.9 1.9-4.7 2.8-7.7 2.8H193V0.2h10.5c3 0 5.8 0.9 7.7 2.8 3.3 3.3 3 7.3 3 11.7C214.2 19.1 214.5 23.4 211.2 26.7zM207.2 7.1c-1-1.2-2.3-1.8-4.3-1.8h-4.3v19h4.3c2 0 3.3-0.6 4.3-1.8 1.1-1.3 1.2-3.4 1.2-7.8C208.5 10.3 208.3 8.4 207.2 7.1zM237.7 26.5c-2 2.1-4.6 3.2-7.9 3.2s-5.9-1.1-7.9-3.2c-3-3-2.9-6.6-2.9-11.6s-0.1-8.7 2.9-11.6c2-2 4.6-3.2 7.9-3.2s5.8 1.1 7.9 3.2c3 3 2.9 6.6 2.9 11.6S240.6 23.5 237.7 26.5zM233.4 6.6c-0.8-0.9-2.1-1.6-3.6-1.6s-2.9 0.6-3.7 1.6c-1.1 1.2-1.4 2.6-1.4 8.2s0.3 7 1.4 8.2c0.8 0.9 2.1 1.6 3.7 1.6s2.8-0.6 3.6-1.6c1.1-1.2 1.4-2.6 1.4-8.2S234.5 7.9 233.4 6.6zM256.7 5.3v24.1H251V5.3h-7.6V0.2h21v5.1H256.7zM119.3 44.1v4.2h6.7v3h-6.7v6.9H116V41.1h11.3v3H119.3zM139.2 58.2l-3.3-6.8h-2.4v6.8h-3.3V41.1h6.7c3.5 0 5.5 2.4 5.5 5.2 0 2.4-1.5 3.9-3.1 4.5l3.8 7.4H139.2zM136.6 44.1h-3.1v4.5h3.1c1.5 0 2.4-0.9 2.4-2.3C139.1 45.1 138.1 44.1 136.6 44.1zM155.6 58.2l-1-3h-6.1l-1 3H144l6.2-17.1h2.6l6.2 17.1H155.6zM151.6 46.2l-2.2 6.2h4.2L151.6 46.2zM173.3 58.2v-10l-3.3 6.5h-2.3l-3.3-6.5v10h-3.3V41.1h3.3l4.5 9.2 4.4-9.2h3.3v17.1H173.3zM180.6 58.2V41.1h11.3v3H184v4h6.7v3H184v4.2h7.9v3H180.6zM209.7 58.2h-2.8l-3.1-10.4-3.1 10.4h-2.8l-4.6-17.1h3.5l2.6 10.8 3.1-10.8h2.5l3.1 10.8 2.7-10.8h3.5L209.7 58.2zM226.5 56.5c-1.2 1.2-2.7 1.9-4.6 1.9s-3.4-0.7-4.6-1.9c-1.7-1.7-1.7-3.9-1.7-6.8 0-3 0-5.1 1.7-6.8 1.2-1.2 2.7-1.9 4.6-1.9s3.4 0.7 4.6 1.9c1.7 1.7 1.7 3.9 1.7 6.8C228.2 52.6 228.3 54.8 226.5 56.5zM224.1 44.9c-0.5-0.6-1.2-0.9-2.1-0.9s-1.7 0.4-2.2 0.9c-0.6 0.7-0.8 1.5-0.8 4.8 0 3.3 0.2 4.1 0.8 4.8 0.5 0.6 1.2 0.9 2.2 0.9s1.7-0.4 2.1-0.9c0.6-0.7 0.8-1.5 0.8-4.8C224.9 46.4 224.7 45.6 224.1 44.9zM240.7 58.2l-3.3-6.8H235v6.8h-3.3V41.1h6.7c3.5 0 5.5 2.4 5.5 5.2 0 2.4-1.5 3.9-3.1 4.5l3.8 7.4H240.7zM238.1 44.1H235v4.5h3.1c1.5 0 2.4-0.9 2.4-2.3C240.6 45.1 239.6 44.1 238.1 44.1zM257.3 58.2l-4.4-7.8-2.2 2.6v5.1h-3.3V41.1h3.3v7.4l6-7.4h4.1l-5.7 6.8 6.1 10.3H257.3zM116.7 100.2V95l12-13.9c1.2-1.4 1.7-2.4 1.7-3.9 0-2.4-1.4-4-3.9-4-1.9 0-3.9 1-3.9 4.1h-5.9c0-5.8 4.3-9.4 9.8-9.4 5.7 0 9.7 3.6 9.7 9.3 0 3.1-1.2 4.8-3.4 7.3l-9 10.4h12.4v5.3H116.7zM141.5 100.2v-6.7h6.7v6.7H141.5zM163.5 100.5c-5.2 0-9.8-3.4-9.8-9.5V77.5c0-6.1 4.5-9.5 9.8-9.5s9.7 3.4 9.7 9.5V91C173.2 97.1 168.7 100.5 163.5 100.5zM167.4 77.6c0-2.7-1.6-4.4-3.9-4.4s-3.9 1.7-3.9 4.4v13.4c0 2.7 1.6 4.3 3.9 4.3s3.9-1.6 3.9-4.3V77.6z"/></svg>