<?xml version="1.0" encoding="utf-8"?>
<!-- Generator: Adobe Illustrator 19.2.1, SVG Export Plug-In . SVG Version: 6.00 Build 0)  -->
<svg version="1.1" id="Layer_1" xmlns="http://www.w3.org/2000/svg" xmlns:xlink="http://www.w3.org/1999/xlink" x="0px" y="0px"
	 viewBox="0 0 250 250" style="enable-background:new 0 0 250 250;" xml:space="preserve">
<style type="text/css">
	.st0{fill:#4498C8;}
</style>
<g>
	<g>
		<path class="st0" d="M125,163.2c24.6,0,44.6-20,44.6-44.6V54.9c0-24.6-20-44.6-44.6-44.6c-24.6,0-44.6,20-44.6,44.6v63.7
			C80.4,143.3,100.4,163.2,125,163.2z"/>
	</g>
	<g>
		<path class="st0" d="M195.1,93.1c-3.5,0-6.4,2.8-6.4,6.4v19.1c0,35.1-28.6,63.7-63.7,63.7c-35.1,0-63.7-28.6-63.7-63.7V99.5
			c0-3.5-2.8-6.4-6.4-6.4c-3.5,0-6.4,2.8-6.4,6.4v19.1c0,40,30.9,72.9,70.1,76.1v19.4h-8.9c-5.6,0-10.2,5.7-10.2,12.7
			c0,7,4.6,12.7,10.2,12.7h30.6c5.6,0,10.2-5.7,10.2-12.7c0-7-4.6-12.7-10.2-12.7h-8.9v-19.4c39.2-3.3,70.1-36.1,70.1-76.1V99.5
			C201.4,96,198.6,93.1,195.1,93.1z"/>
	</g>
</g>
</svg>
