<svg xmlns="http://www.w3.org/2000/svg" viewBox="0 0 250 250"><style type="text/css"> .st0{fill:#4498C8;} </style><path class="st0" d="M222 102.4c-1.4-4.4-5.3-7.6-10-8.3l-52.5-7.5 -23.5-46.8C134 35.6 129.7 33 125 33c-4.7 0-9 2.6-11.1 6.8L90.5 86.6 38 94.1c-4.6 0.7-8.5 3.9-9.9 8.3 -1.4 4.4-0.2 9.2 3.1 12.4l38 36.5 -9 51.5c-0.8 4.5 1.1 9.2 4.9 11.9 2.1 1.5 4.7 2.3 7.2 2.3 2 0 3.9-0.5 5.7-1.4l47-24.3 46.9 24.3c1.8 0.9 3.8 1.4 5.7 1.4 2.6 0 5.1-0.8 7.2-2.3 3.8-2.7 5.7-7.3 4.9-11.9l-9-51.5 38-36.5C222.2 111.6 223.4 106.8 222 102.4z"/></svg>